<?xml version="1.0" encoding="utf-8"?>
<!-- Generator: Adobe Illustrator 24.3.0, SVG Export Plug-In . SVG Version: 6.00 Build 0)  -->
<svg version="1.1" baseProfile="tiny" id="Layer_1" xmlns="http://www.w3.org/2000/svg" xmlns:xlink="http://www.w3.org/1999/xlink"
	 x="0px" y="0px" viewBox="0 0 1000 1000" overflow="visible" xml:space="preserve">
<circle id="background" cx="500.06" cy="500" r="494.12"/>
<polygon fill="#005E53" points="927.64,255.01 72.41,744.91 501.05,990.66 928.02,748.82 "/>
<polygon fill="#00705A" points="927.64,255.02 501.38,7.16 73.77,252.11 72.41,744.91 "/>
<polygon fill="#FF9100" points="316.5,918.98 255.99,918.98 255.99,147.72 316.5,113.06 "/>
<path fill="#870000" d="M236.83,250.06l-0.01,0.01c-27.76,30.99-42.31,54.7-56.95,85.63c-0.28,0.59-0.58,1.14-0.86,1.74
	c-0.37,0.77-0.75,1.59-1.1,2.37c-18.66,40.39-29.12,83.33-31.69,127.92c-0.09,1.48-0.17,2.96-0.24,4.45
	C136.9,669.1,289.74,836.69,486.66,845.75c196.93,9.07,364.51-143.76,373.58-340.69c3.37-73.11-11.57-120.61-42.8-186.87
	l51.98-30.02c45.27,72.17,54.69,134.28,50.76,219.65c-2.6,56.29-16.14,110.41-40.27,160.84c-23.29,48.7-55.41,91.92-95.47,128.45
	s-86.04,64.55-136.68,83.27c-52.44,19.39-107.57,27.9-163.86,25.31c-56.29-2.59-110.4-16.14-160.84-40.26
	c-48.7-23.3-91.92-55.42-128.45-95.48c-36.53-40.05-64.54-86.04-83.26-136.67c-19.39-52.44-27.91-107.57-25.32-163.86
	c0.11-2.49,0.26-4.99,0.43-7.48c6.48-101.46,49.37-196.47,121.34-268.44c13.41-11.8,24.29-20.71,48.19-36.5l0,72.71"/>
<circle fill="none" stroke="#08FFED" stroke-width="5" stroke-miterlimit="10" cx="500" cy="500" r="494.12"/>
<path fill="#FF9100" d="M738.68,916.78c-5.86,5.86-13.53,8.79-21.21,8.79c-7.68,0-15.36-2.93-21.22-8.79L264.78,485.31
	c-11.72-11.72-11.72-30.72,0-42.43L645.97,61.69c11.72-11.72,30.71-11.72,42.43,0c11.72,11.71,11.72,30.71,0,42.42L328.42,464.09
	l410.26,410.26C750.4,886.07,750.4,905.06,738.68,916.78z"/>
</svg>
